<svg xmlns="http://www.w3.org/2000/svg" xmlns:xlink="http://www.w3.org/1999/xlink" preserveAspectRatio="xMidYMid" width="32" height="32" viewBox="0 0 32 32">
  <defs>
    <style>
      .cls-1 {
        fill: #007dce;
        fill-rule: evenodd;
      }
    </style>
  </defs>
  <path d="M16.000,-0.000 C13.590,-0.000 11.636,1.953 11.636,4.363 L11.636,27.636 C11.636,30.046 13.590,32.000 16.000,32.000 C18.410,32.000 20.364,30.046 20.364,27.636 L20.364,4.363 C20.364,1.953 18.410,-0.000 16.000,-0.000 ZM17.455,27.636 C17.455,28.439 16.803,29.091 16.000,29.091 C15.197,29.091 14.545,28.439 14.545,27.636 L14.545,4.363 C14.545,3.560 15.197,2.909 16.000,2.909 C16.803,2.909 17.455,3.560 17.455,4.363 L17.455,27.636 ZM27.636,8.727 C25.226,8.727 23.273,10.680 23.273,13.091 L23.273,27.636 C23.273,30.046 25.226,32.000 27.636,32.000 C30.046,32.000 32.000,30.046 32.000,27.636 L32.000,13.091 C32.000,10.680 30.046,8.727 27.636,8.727 ZM29.091,27.636 C29.091,28.439 28.440,29.091 27.636,29.091 C26.833,29.091 26.182,28.439 26.182,27.636 L26.182,13.091 C26.182,12.287 26.833,11.636 27.636,11.636 C28.440,11.636 29.091,12.287 29.091,13.091 L29.091,27.636 ZM4.364,17.454 C1.954,17.454 -0.000,19.408 -0.000,21.818 L-0.000,27.636 C-0.000,30.046 1.954,32.000 4.364,32.000 C6.773,32.000 8.727,30.046 8.727,27.636 L8.727,21.818 C8.727,19.408 6.773,17.454 4.364,17.454 ZM5.818,27.636 C5.818,28.439 5.167,29.091 4.364,29.091 C3.560,29.091 2.909,28.439 2.909,27.636 L2.909,21.818 C2.909,21.015 3.560,20.363 4.364,20.363 C5.167,20.363 5.818,21.015 5.818,21.818 L5.818,27.636 Z" class="cls-1"/>
</svg>
