<svg xmlns="http://www.w3.org/2000/svg" xmlns:xlink="http://www.w3.org/1999/xlink" preserveAspectRatio="xMidYMid" width="38" height="32" viewBox="0 0 38 32">
  <defs>
    <style>
      .cls-1 {
        fill: #007dce;
        fill-rule: evenodd;
      }
    </style>
  </defs>
  <path d="M33.250,4.799 L28.500,4.799 L25.333,-0.000 L12.667,-0.000 L9.500,4.800 L4.750,4.800 C2.126,4.800 -0.000,6.973 -0.000,9.625 L-0.000,27.200 C-0.000,29.852 2.126,32.000 4.750,32.000 L33.250,32.000 C35.874,32.000 38.000,29.876 38.000,27.225 L38.000,9.649 C38.000,6.998 35.874,4.799 33.250,4.799 ZM34.833,27.225 C34.833,28.109 34.138,28.800 33.250,28.800 L4.750,28.800 C3.877,28.800 3.167,28.082 3.167,27.200 L3.167,9.625 C3.167,8.729 3.877,8.000 4.750,8.000 L11.195,8.000 L14.361,3.200 L23.694,3.200 L26.805,8.000 L33.250,8.000 C34.108,8.000 34.833,8.755 34.833,9.650 L34.833,27.225 ZM19.000,9.600 C14.628,9.600 11.083,13.182 11.083,17.600 C11.083,22.018 14.628,25.600 19.000,25.600 C23.372,25.600 26.917,22.018 26.917,17.600 C26.917,13.181 23.372,9.600 19.000,9.600 ZM19.000,22.400 C16.381,22.400 14.250,20.247 14.250,17.600 C14.250,14.953 16.380,12.800 19.000,12.800 C21.619,12.800 23.750,14.953 23.750,17.600 C23.750,20.247 21.619,22.400 19.000,22.400 Z" class="cls-1"/>
</svg>
