<svg xmlns="http://www.w3.org/2000/svg" xmlns:xlink="http://www.w3.org/1999/xlink" preserveAspectRatio="xMidYMid" width="46" height="33" viewBox="0 0 46 33">
  <defs>
    <style>
      .cls-1 {
        fill: #007dce;
        fill-rule: evenodd;
      }
    </style>
  </defs>
  <path d="M40.101,33.001 L11.468,32.968 C11.305,32.990 11.127,33.001 10.930,33.001 C4.801,33.001 -0.000,28.066 -0.000,21.765 C-0.000,16.380 3.826,11.788 8.932,10.757 C9.180,4.782 14.061,-0.002 20.025,-0.002 C25.378,-0.002 29.924,3.941 30.919,9.108 C31.252,9.054 31.586,9.027 31.923,9.027 C35.584,9.027 38.564,12.041 38.564,15.747 C38.564,16.024 38.546,16.301 38.511,16.575 C42.695,16.906 46.000,20.457 46.000,24.775 C46.000,28.295 43.767,31.417 40.445,32.547 L40.442,32.537 L40.101,33.001 ZM38.812,30.092 C40.963,29.362 43.125,27.044 43.125,24.775 C43.125,21.493 40.100,18.905 36.818,19.566 L35.255,17.475 C35.543,16.909 35.689,16.328 35.689,15.747 C35.689,13.646 34.000,11.936 31.923,11.936 C31.381,11.936 30.835,12.066 30.300,12.325 L28.244,11.045 C28.145,6.558 24.458,2.907 20.025,2.907 C15.488,2.907 11.798,6.643 11.798,11.234 C11.798,11.460 11.815,11.683 11.833,11.907 L10.503,13.471 C6.226,13.785 2.875,17.427 2.875,21.765 C2.875,26.434 6.413,30.092 10.930,30.092 L38.812,30.092 Z" class="cls-1"/>
</svg>
