<svg xmlns="http://www.w3.org/2000/svg" xmlns:xlink="http://www.w3.org/1999/xlink" preserveAspectRatio="xMidYMid" width="33" height="40" viewBox="0 0 33 40">
  <defs>
    <style>
      .cls-1 {
        fill: #007dce;
        fill-rule: evenodd;
      }
    </style>
  </defs>
  <path d="M33.000,11.666 L33.000,35.000 C33.000,37.761 30.784,40.000 28.050,40.000 L4.950,40.000 C2.216,40.000 -0.000,37.761 -0.000,35.000 L-0.000,11.666 C-0.000,8.905 2.216,6.666 4.950,6.666 L11.550,6.666 L11.550,10.000 L4.950,10.000 C4.039,10.000 3.300,10.746 3.300,11.666 L3.300,35.000 C3.300,35.920 4.039,36.666 4.950,36.666 L28.050,36.666 C28.961,36.666 29.700,35.920 29.700,35.000 L29.700,11.666 C29.700,10.746 28.961,10.000 28.050,10.000 L21.450,10.000 L21.450,6.666 L28.050,6.666 C30.784,6.666 33.000,8.905 33.000,11.666 ZM24.267,18.821 C23.622,18.170 22.578,18.170 21.933,18.821 L18.150,22.642 L18.150,1.667 L18.150,1.666 C18.150,0.746 17.411,-0.000 16.500,-0.000 C15.589,-0.000 14.850,0.746 14.850,1.666 L14.850,22.642 L11.067,18.821 C10.422,18.170 9.377,18.170 8.733,18.821 C8.089,19.472 8.089,20.527 8.733,21.178 L15.333,27.845 C15.643,28.157 16.062,28.333 16.500,28.333 C16.937,28.333 17.357,28.157 17.667,27.845 L24.267,21.178 C24.911,20.527 24.911,19.472 24.267,18.821 Z" class="cls-1"/>
</svg>
