<svg xmlns="http://www.w3.org/2000/svg" xmlns:xlink="http://www.w3.org/1999/xlink" preserveAspectRatio="xMidYMid" width="46" height="46" viewBox="0 0 46 46">
  <defs>
    <style>
      .cls-1 {
        fill: #007dce;
        fill-rule: evenodd;
      }
    </style>
  </defs>
  <path d="M43.573,38.804 L38.803,38.804 C38.463,37.537 38.198,36.592 37.322,35.932 L43.125,35.932 L43.125,33.378 C42.934,33.246 42.673,33.096 42.461,33.006 C42.377,32.970 42.276,32.922 42.196,32.879 L33.010,27.870 C32.162,27.408 31.604,26.551 31.522,25.589 C31.442,24.627 31.851,23.688 32.610,23.091 C35.091,21.141 35.925,16.846 35.925,14.596 L35.925,8.532 C35.925,6.420 32.113,2.872 27.961,2.872 C25.882,2.872 23.966,3.573 22.451,4.751 C21.324,4.392 20.020,4.391 18.836,4.318 C20.911,1.893 24.475,-0.000 27.961,-0.000 C33.325,-0.000 38.800,4.517 38.800,8.532 L38.800,14.596 C38.800,17.509 37.751,22.705 34.388,25.349 L43.573,30.357 C43.573,30.357 46.000,31.355 46.000,32.783 L46.000,36.377 C46.000,37.717 44.912,38.804 43.573,38.804 ZM28.739,15.683 L28.739,21.747 C28.739,24.660 27.825,29.856 24.461,32.500 L33.512,37.508 C33.512,37.508 35.939,38.506 35.939,39.934 L35.939,43.573 C35.939,44.913 34.851,46.000 33.512,46.000 L2.426,46.000 C1.088,46.000 -0.000,44.913 -0.000,43.573 L-0.000,39.934 C-0.000,38.588 2.426,37.508 2.426,37.508 L11.710,32.477 C8.312,29.755 7.190,24.396 7.190,21.747 L7.190,15.683 C7.190,11.668 12.672,7.196 18.035,7.196 C23.398,7.196 28.739,11.668 28.739,15.683 ZM25.864,15.683 C25.864,13.571 22.187,10.068 18.035,10.068 C13.958,10.068 10.065,13.620 10.065,15.683 L10.065,21.747 C10.065,24.029 11.098,28.305 13.509,30.236 C14.260,30.838 14.660,31.776 14.574,32.734 C14.489,33.692 13.927,34.543 13.081,35.002 L3.796,40.032 C3.731,40.069 3.664,40.101 3.597,40.132 C3.369,40.236 3.081,40.409 2.875,40.560 L2.875,43.128 L33.064,43.128 L33.064,40.529 C32.873,40.397 32.612,40.247 32.400,40.157 C32.315,40.121 32.215,40.073 32.134,40.029 L23.084,35.021 C22.236,34.559 21.678,33.702 21.596,32.740 C21.516,31.778 21.925,30.839 22.684,30.242 C25.165,28.292 25.864,23.997 25.864,21.747 L25.864,15.683 Z" class="cls-1"/>
</svg>
