<svg xmlns="http://www.w3.org/2000/svg" xmlns:xlink="http://www.w3.org/1999/xlink" preserveAspectRatio="xMidYMid" width="32" height="32" viewBox="0 0 32 32">
  <defs>
    <style>
      .cls-1 {
        fill: #007dce;
        fill-rule: evenodd;
      }
    </style>
  </defs>
  <path d="M16.614,0.010 C16.411,0.003 16.207,-0.000 16.000,-0.000 C15.793,-0.000 15.589,0.003 15.386,0.010 C6.833,0.334 -0.000,7.370 -0.000,16.000 C-0.000,24.629 6.833,31.665 15.386,31.989 C15.589,31.996 15.793,32.000 16.000,32.000 C16.207,32.000 16.411,31.996 16.614,31.989 C25.167,31.665 32.000,24.629 32.000,16.000 C32.000,7.370 25.167,0.334 16.614,0.010 ZM29.007,14.545 L23.221,14.545 C22.891,9.672 20.941,5.785 19.316,3.331 C24.484,4.683 28.411,9.113 29.007,14.545 ZM16.003,3.702 C17.432,5.563 19.894,9.447 20.305,14.545 L11.695,14.545 C12.105,9.469 14.574,5.571 16.003,3.702 ZM20.305,17.454 C19.894,22.531 17.429,26.429 15.996,28.298 C14.567,26.436 12.105,22.552 11.695,17.454 L20.305,17.454 ZM12.683,3.331 C11.058,5.785 9.109,9.672 8.778,14.545 L2.993,14.545 C3.589,9.113 7.516,4.683 12.683,3.331 ZM2.993,17.454 L8.778,17.454 C9.109,22.323 11.055,26.211 12.680,28.665 C7.513,27.316 3.589,22.887 2.993,17.454 ZM19.320,28.665 C20.945,26.211 22.891,22.323 23.221,17.454 L29.007,17.454 C28.411,22.887 24.487,27.316 19.320,28.665 Z" class="cls-1"/>
</svg>
