<svg xmlns="http://www.w3.org/2000/svg" xmlns:xlink="http://www.w3.org/1999/xlink" preserveAspectRatio="xMidYMid" width="12.37" height="12" viewBox="0 0 12.37 12">
  <defs>
    <style>
      .cls-1 {
        fill: #fff;
        opacity: 0.7;
        fill-rule: evenodd;
      }
    </style>
  </defs>
  <path d="M10.867,2.269 L10.867,3.748 L10.080,3.748 L10.080,2.269 L8.539,2.269 L8.539,1.502 L10.080,1.502 L10.080,0.024 L10.867,0.024 L10.867,1.502 L12.383,1.502 L12.383,2.269 L10.867,2.269 ZM6.042,0.489 C6.042,0.489 7.138,1.146 7.138,2.430 C7.138,3.715 6.497,4.275 5.689,4.966 C4.880,5.657 5.352,6.069 6.615,6.941 C7.878,7.812 8.232,9.742 6.598,11.141 C4.965,12.539 -0.005,12.352 -0.005,9.756 C-0.005,7.161 3.735,7.121 4.038,7.121 C4.341,7.121 4.392,7.039 4.140,6.776 C3.886,6.514 3.481,6.003 3.954,5.443 C3.111,5.476 0.786,5.032 0.786,2.957 C0.786,0.883 3.027,-0.006 3.834,-0.006 C4.644,-0.006 7.087,-0.006 7.862,-0.006 C7.862,-0.006 7.677,0.143 7.256,0.372 C6.834,0.603 6.042,0.489 6.042,0.489 ZM1.426,9.279 C1.426,10.481 2.319,11.287 3.986,11.287 C5.651,11.287 6.632,10.744 6.632,9.625 C6.632,8.504 5.530,7.944 4.913,7.484 C2.639,7.484 1.426,8.076 1.426,9.279 ZM3.667,0.390 C1.308,0.390 2.218,4.932 4.223,4.932 C6.884,4.932 5.503,0.323 3.667,0.390 Z" class="cls-1"/>
</svg>
