<svg xmlns="http://www.w3.org/2000/svg" xmlns:xlink="http://www.w3.org/1999/xlink" preserveAspectRatio="xMidYMid" width="16" height="8" viewBox="0 0 16 8">
  <defs>
    <style>
      .cls-1 {
        fill: #fff;
        fill-rule: evenodd;
      }
    </style>
  </defs>
  <path d="M12.000,8.000 C10.138,8.000 8.588,6.722 8.141,5.000 L4.000,5.000 L4.000,7.000 C4.000,7.552 3.552,8.000 3.000,8.000 C2.448,8.000 2.000,7.552 2.000,7.000 L2.000,5.000 L1.000,5.000 C0.448,5.000 0.000,4.552 0.000,4.000 C0.000,3.447 0.448,3.000 1.000,3.000 L8.141,3.000 C8.588,1.278 10.138,-0.000 12.000,-0.000 C14.209,-0.000 16.000,1.791 16.000,4.000 C16.000,6.209 14.209,8.000 12.000,8.000 ZM12.000,2.000 C10.895,2.000 10.000,2.895 10.000,4.000 C10.000,5.104 10.895,6.000 12.000,6.000 C13.105,6.000 14.000,5.104 14.000,4.000 C14.000,2.895 13.105,2.000 12.000,2.000 Z" class="cls-1"/>
</svg>
