<?xml version="1.0" encoding="utf-8"?>
<!-- Generator: Adobe Illustrator 19.1.0, SVG Export Plug-In . SVG Version: 6.00 Build 0)  -->
<svg version="1.1" id="Warstwa_1" xmlns="http://www.w3.org/2000/svg" xmlns:xlink="http://www.w3.org/1999/xlink" x="0px" y="0px"
	 viewBox="-185 404.9 223.3 33" style="enable-background:new -185 404.9 223.3 33;" xml:space="preserve">
<style type="text/css">
	.st0{fill:#FFFFFF;}
	.st1{fill:#007DCE;}
</style>
<path class="st0" d="M30.6,416.4c-4.4,0-7.8,3.6-7.8,8c0,4.4,3.4,8,7.8,8c2.3,0,4.2-0.7,5.8-2.1c0.7-0.7,0.4-1.6,0-2.1
	c-0.4-0.5-1.7-0.6-2.4,0.1c-0.8,0.6-2.2,0.9-3.3,0.8c-1.1-0.1-2.4-0.7-3.1-1.4c-0.6-0.5-0.9-1.4-1.1-2.1h10.2c0.9,0,1.6-0.5,1.7-1.3
	c0-0.1,0-0.2,0-0.3c0-0.1,0-0.1,0-0.2C38.1,419.5,34.8,416.4,30.6,416.4z M26.3,422.8c0.3-1.3,1.6-3.3,4.3-3.4
	c2.8,0.2,4.4,2.1,4.8,3.4H26.3z"/>
<path class="st0" d="M16.1,432.4c-0.9,0-1.7-0.8-1.7-1.7v-7.6c0-1.8-1.5-3.3-3.2-3.3c-1.8,0-3.3,1.4-3.3,3.2c0,0,0,0.1,0,0.1v7.6
	c0,0.9-0.8,1.7-1.7,1.7c-0.9,0-1.7-0.8-1.7-1.7v-7.6c0,0,0-0.1,0-0.1c0-1.8-1.5-3.2-3.3-3.2c-1.8,0-3.2,1.5-3.2,3.3v7.6
	c0,0.1,0,0.2,0,0.2c0,0,0,0.1,0,0.1c0,0.1,0,0.1-0.1,0.2c0,0,0,0.1,0,0.2c-0.3,0.6-0.9,1-1.6,1c-0.1,0-0.2,0-0.3,0
	c-0.8-0.2-1.4-0.8-1.4-1.7v-7.6c0,0,0,0,0,0v-5c0-1,0.8-1.7,1.7-1.7c0.7,0,1.3,0.4,1.5,1c1-0.6,2.2-1,3.4-1c2,0,3.8,0.8,5,2.2
	c1.2-1.4,3-2.2,5-2.2c3.7,0,6.7,3,6.7,6.7v7.6C17.8,431.6,17,432.4,16.1,432.4z"/>
<path class="st0" d="M-12.1,432.6c-1.3,0-2.4-1.1-2.4-2.4c0-1.3,1.1-2.4,2.4-2.4c1.3,0,2.4,1.1,2.4,2.4
	C-9.7,431.5-10.8,432.6-12.1,432.6z"/>
<path class="st0" d="M-21.7,432.4c-0.9,0-1.7-0.8-1.7-1.7V423c0-1.8-1.5-3.2-3.3-3.2c-1.8,0-3.2,1.4-3.2,3.2v7.6
	c0,0.1,0,0.2-0.1,0.3c-0.2,0.8-0.9,1.4-1.7,1.4c-1,0-1.7-0.8-1.7-1.7V423v-5c0-0.9,0.7-1.7,1.7-1.7c0.7,0,1.3,0.4,1.6,1
	c1-0.6,2.2-1,3.4-1c3.7,0,6.7,3,6.7,6.7v7.6C-20,431.6-20.8,432.4-21.7,432.4z"/>
<path class="st0" d="M-40.9,416.4c-0.8,0-1.5,0.6-1.7,1.4c-1.2-0.9-2.7-1.4-4.3-1.4c-2.2,0-4.1,0.9-5.5,2.4
	c-1.4,1.4-2.2,3.4-2.2,5.6c0,2.2,0.8,4.2,2.2,5.6c1.4,1.4,3.3,2.3,5.5,2.3c1.6,0,3.1-0.5,4.3-1.4c0.2,0.8,0.8,1.4,1.7,1.4
	c0.9,0,1.7-0.8,1.7-1.7v-6.3v-6.3C-39.2,417.1-40,416.4-40.9,416.4z M-43.9,427.7c-0.8,0.8-1.9,1.2-3,1.2c-1.2,0-2.2-0.4-3-1.2
	c-0.8-0.8-1.2-2-1.2-3.3c0-1.3,0.4-2.5,1.2-3.3c0.7-0.9,1.8-1.3,3-1.3c1.1,0,2.2,0.4,3,1.3c0.8,0.8,1.3,2,1.3,3.3
	C-42.6,425.7-43.1,426.9-43.9,427.7z"/>
<path class="st0" d="M-62.5,423.5l4.9,5.9c0.6,0.8,0.5,1.9-0.3,2.5c-0.3,0.3-0.7,0.4-1.1,0.4c-0.5,0-1-0.2-1.3-0.6L-65,426l-1.8,1.8
	v2.8c0,1-0.8,1.8-1.8,1.8c-1,0-1.8-0.8-1.8-1.8v-18.9c0-1,0.8-1.8,1.8-1.8c1,0,1.8,0.8,1.8,1.8v11.1l6.6-6.6c0.7-0.7,1.8-0.7,2.5,0
	c0.7,0.7,0.7,1.8,0,2.5L-62.5,423.5z"/>
<path class="st0" d="M-75.8,419.8c-0.7,0-1.4,0.2-1.9,0.6c-0.6,0.4-1.1,0.9-1.5,1.5c-0.8,1-1.2,2.2-1.3,2.7v6.1
	c0,0.9-0.8,1.7-1.8,1.7c-0.9,0-1.7-0.8-1.7-1.7v-12.6c0-0.9,0.8-1.7,1.7-1.7c1,0,1.8,0.7,1.8,1.7v0.2c0.2-0.2,0.4-0.5,0.7-0.6
	c1.1-0.7,2.4-1.3,4-1.2c1,0,1.7,0.7,1.7,1.7C-74.1,419-74.8,419.8-75.8,419.8z"/>
<path class="st0" d="M-91.4,416.4c-0.8,0-1.5,0.6-1.7,1.4c-1.2-0.9-2.7-1.4-4.3-1.4c-2.2,0-4.1,0.9-5.5,2.4
	c-1.4,1.4-2.2,3.4-2.2,5.6c0,2.2,0.8,4.2,2.2,5.6c1.4,1.4,3.3,2.3,5.5,2.3c1.6,0,3.1-0.5,4.3-1.4c0.2,0.8,0.8,1.4,1.7,1.4
	c0.9,0,1.7-0.8,1.7-1.7v-6.3v-6.3C-89.7,417.1-90.5,416.4-91.4,416.4z M-94.4,427.7c-0.8,0.8-1.9,1.2-3,1.2c-1.2,0-2.2-0.4-3-1.2
	c-0.8-0.8-1.2-2-1.2-3.3c0-1.3,0.5-2.5,1.2-3.3c0.7-0.9,1.8-1.3,3-1.3c1.1,0,2.2,0.4,3,1.3c0.8,0.8,1.3,2,1.3,3.3
	C-93.1,425.7-93.6,426.9-94.4,427.7z"/>
<path class="st0" d="M-111.4,410c-1,0-1.8,0.8-1.8,1.7v6c-1.2-0.8-2.7-1.3-4.3-1.3c-4.3,0-7.8,3.6-7.8,8c0,4.3,3.5,8,7.8,8
	c1.6,0,3.1-0.5,4.4-1.4c0.2,0.8,0.8,1.4,1.7,1.4c1,0,1.7-0.8,1.7-1.7v-6.2c0,0,0,0,0,0v-12.7C-109.7,410.8-110.5,410-111.4,410z
	 M-114.5,427.6c-0.8,0.8-1.8,1.3-3,1.3c-1.2,0-2.2-0.5-3-1.3c-0.8-0.8-1.3-2-1.3-3.2c0-1.3,0.5-2.4,1.3-3.2c0.8-0.8,1.9-1.3,3-1.3
	c1.2,0,2.2,0.5,3,1.3c0.8,0.8,1.3,2,1.3,3.2C-113.2,425.6-113.7,426.8-114.5,427.6z"/>
<path class="st1" d="M-155.7,437.8v0.1h-7.3v-33h5.5l0,0c0,0,0,0,0,0h1.8v0.1c8.2,0.9,14.7,7.9,14.7,16.4S-147.4,436.9-155.7,437.8z
	"/>
<rect x="-185" y="404.9" class="st1" width="18.3" height="33"/>
</svg>
