<?xml version="1.0" encoding="utf-8"?>
<!-- Generator: Adobe Illustrator 15.1.0, SVG Export Plug-In . SVG Version: 6.00 Build 0)  -->
<!DOCTYPE svg PUBLIC "-//W3C//DTD SVG 1.1//EN" "http://www.w3.org/Graphics/SVG/1.1/DTD/svg11.dtd">
<svg version="1.1" id="Layer_1" xmlns="http://www.w3.org/2000/svg" xmlns:xlink="http://www.w3.org/1999/xlink" x="0px" y="0px"
	 width="33px" height="33.333px" viewBox="53 6.667 33 33.333" enable-background="new 53 6.667 33 33.333" xml:space="preserve">
<path fill="#007DCE" d="M81.05,6.667h-4.966H74.45h-9.9h-0.633H57.95c-2.734,0-4.95,2.239-4.95,5V35c0,2.762,2.216,5,4.95,5h23.1
	c2.734,0,4.95-2.238,4.95-5V11.667C86,8.905,83.784,6.667,81.05,6.667z M82.7,35c0,0.92-0.739,1.666-1.65,1.666h-23.1
	c-0.911,0-1.65-0.746-1.65-1.666V11.667c0-0.92,0.739-1.666,1.65-1.666h5.967h0.633h9.9h1.634h4.966c0.911,0,1.65,0.746,1.65,1.666
	V35z"/>
<g>
	<path fill="none" stroke="#007DCE" stroke-miterlimit="10" d="M67.014,20.202c0,1.104-0.896,2-2,2h-4c-1.104,0-2-0.896-2-2v-4
		c0-1.104,0.896-2,2-2h4c1.104,0,2,0.896,2,2V20.202z"/>
	<line fill="none" stroke="#007DCE" stroke-miterlimit="10" x1="69.5" y1="16.25" x2="79.584" y2="16.25"/>
	<line fill="none" stroke="#007DCE" stroke-miterlimit="10" x1="69.5" y1="19.417" x2="76.917" y2="19.417"/>
	
		<line fill="none" stroke="#007DCE" stroke-linecap="round" stroke-miterlimit="10" x1="60.584" y1="17.5" x2="62.417" y2="20.584"/>
	
		<line fill="none" stroke="#007DCE" stroke-linecap="round" stroke-miterlimit="10" x1="62.417" y1="20.584" x2="67.917" y2="13.333"/>
</g>
<g>
	<path fill="none" stroke="#007DCE" stroke-miterlimit="10" d="M67.215,31.416c0,1.104-0.896,2-2,2h-4c-1.104,0-2-0.896-2-2v-4
		c0-1.104,0.896-2,2-2h4c1.104,0,2,0.896,2,2V31.416z"/>
	<line fill="none" stroke="#007DCE" stroke-miterlimit="10" x1="69.701" y1="27.464" x2="79.785" y2="27.464"/>
	<line fill="none" stroke="#007DCE" stroke-miterlimit="10" x1="69.701" y1="30.63" x2="77.118" y2="30.63"/>
</g>
</svg>
