<svg xmlns="http://www.w3.org/2000/svg" xmlns:xlink="http://www.w3.org/1999/xlink" preserveAspectRatio="xMidYMid" width="12.37" height="12" viewBox="0 0 12.37 12">
  <defs>
    <style>
      .cls-1 {
        fill: #fff;
        opacity: 0.7;
        fill-rule: evenodd;
      }
    </style>
  </defs>
  <path d="M9.906,12.000 C9.906,6.699 5.470,2.400 0.002,2.400 L0.002,-0.000 C6.839,-0.000 12.381,5.372 12.381,12.000 L9.906,12.000 ZM7.429,12.000 L4.954,12.000 C4.954,9.348 2.736,7.199 0.002,7.199 L0.002,4.800 C4.104,4.800 7.429,8.024 7.429,12.000 ZM1.239,9.600 C1.924,9.600 2.477,10.137 2.477,10.800 C2.477,11.463 1.924,12.000 1.239,12.000 C0.555,12.000 0.002,11.463 0.002,10.800 C0.002,10.137 0.555,9.600 1.239,9.600 Z" class="cls-1"/>
</svg>
