<svg xmlns="http://www.w3.org/2000/svg" xmlns:xlink="http://www.w3.org/1999/xlink" preserveAspectRatio="xMidYMid" width="44.093" height="34.47" viewBox="0 0 44.093 34.47">
  <defs>
    <style>
      .cls-1 {
        fill: #007dce;
        fill-rule: evenodd;
      }
    </style>
  </defs>
  <path d="M43.348,13.679 L42.656,14.045 L42.656,25.160 C43.479,25.636 44.040,26.517 44.040,27.537 C44.040,29.059 42.806,30.293 41.285,30.293 C39.763,30.293 38.530,29.059 38.530,27.537 C38.530,26.522 39.084,25.646 39.901,25.167 L39.901,15.501 L34.329,18.445 C34.401,18.612 34.442,18.795 34.442,18.989 L34.442,30.948 C34.442,31.363 34.257,31.754 33.936,32.015 C33.630,32.265 30.691,34.460 21.970,34.460 C13.219,34.460 10.357,32.137 10.058,31.872 C9.765,31.611 9.597,31.236 9.597,30.843 L9.597,19.184 C9.597,18.936 9.680,18.716 9.794,18.516 L0.724,13.686 C0.281,13.447 0.004,12.985 0.001,12.482 C-0.002,11.978 0.270,11.515 0.708,11.270 L21.318,0.164 C21.735,-0.066 22.237,-0.068 22.651,0.160 L43.374,11.251 C43.819,11.496 44.093,11.965 44.088,12.473 C44.083,12.981 43.799,13.445 43.348,13.679 ZM12.352,30.088 C13.365,30.613 16.165,31.704 21.970,31.704 C27.740,31.704 30.605,30.679 31.688,30.158 L31.688,19.840 L22.588,24.648 C22.389,24.754 22.169,24.806 21.950,24.806 C21.726,24.806 21.500,24.751 21.296,24.641 L12.352,19.877 L12.352,30.088 ZM21.992,2.942 L4.245,12.456 L21.961,21.867 L39.794,12.430 L21.992,2.942 Z" class="cls-1"/>
</svg>
