<svg xmlns="http://www.w3.org/2000/svg" xmlns:xlink="http://www.w3.org/1999/xlink" preserveAspectRatio="xMidYMid" width="12.37" height="10.5" viewBox="0 0 12.37 10.5">
  <defs>
    <style>
      .cls-1 {
        fill: #fff;
        opacity: 0.7;
        fill-rule: evenodd;
      }
    </style>
  </defs>
  <path d="M12.370,1.262 C12.162,1.382 11.536,1.621 10.953,1.682 C11.327,1.471 11.880,0.781 12.017,0.233 C11.657,0.473 10.832,0.822 10.424,0.822 C10.424,0.822 10.424,0.823 10.424,0.824 C9.959,0.316 9.305,-0.000 8.578,-0.000 C7.168,-0.000 6.024,1.193 6.024,2.666 C6.024,2.870 6.047,3.069 6.090,3.260 L6.089,3.260 C4.176,3.209 1.939,2.208 0.679,0.494 C-0.095,1.894 0.575,3.449 1.453,4.016 C1.153,4.041 0.599,3.981 0.338,3.716 C0.320,4.644 0.748,5.874 2.308,6.320 C2.007,6.490 1.477,6.441 1.245,6.405 C1.326,7.189 2.378,8.215 3.527,8.215 C3.118,8.709 1.720,9.607 -0.009,9.321 C1.166,10.068 2.535,10.500 3.985,10.500 C8.105,10.500 11.305,7.014 11.133,2.714 C11.133,2.709 11.132,2.704 11.132,2.700 C11.132,2.688 11.133,2.676 11.133,2.666 C11.133,2.652 11.132,2.640 11.132,2.626 C11.506,2.359 12.010,1.886 12.370,1.262 Z" class="cls-1"/>
</svg>
